<svg xmlns="http://www.w3.org/2000/svg" xmlns:xlink="http://www.w3.org/1999/xlink" width="500" zoomAndPan="magnify" viewBox="0 0 375 374.999991" height="500" preserveAspectRatio="xMidYMid meet" version="1.0"><defs><g/><clipPath id="b7e55cc72f"><rect x="0" width="95" y="0" height="83"/></clipPath><clipPath id="d6fb55faf0"><rect x="0" width="233" y="0" height="330"/></clipPath><clipPath id="ca3ca3b95d"><path d="M 82.023438 123.839844 L 285.832031 123.839844 L 285.832031 169.675781 L 82.023438 169.675781 Z M 82.023438 123.839844 " clip-rule="nonzero"/></clipPath><clipPath id="4e1e78216f"><path d="M 0.0234375 0.839844 L 203.832031 0.839844 L 203.832031 46.675781 L 0.0234375 46.675781 Z M 0.0234375 0.839844 " clip-rule="nonzero"/></clipPath><clipPath id="e81abdebdd"><rect x="0" width="204" y="0" height="47"/></clipPath><clipPath id="de3420a3c5"><rect x="0" width="163" y="0" height="82"/></clipPath><clipPath id="26e98bd407"><rect x="0" width="57" y="0" height="83"/></clipPath><clipPath id="eba75b606f"><rect x="0" width="20" y="0" height="68"/></clipPath><clipPath id="657b70e239"><rect x="0" width="187" y="0" height="43"/></clipPath></defs><rect x="-37.5" width="450" fill="#ffffff" y="-37.499999" height="449.999989" fill-opacity="1"/><rect x="-37.5" width="450" fill="#f6f3f0" y="-37.499999" height="449.999989" fill-opacity="1"/><g transform="matrix(1, 0, 0, 1, 60, 264)"><g clip-path="url(#b7e55cc72f)"><g fill="#000000" fill-opacity="1"><g transform="translate(15.219257, 49.708351)"><g><path d="M 42.109375 -29.4375 C 42.273438 -29.238281 42.335938 -29.003906 42.296875 -28.734375 C 42.265625 -28.472656 42.132812 -28.257812 41.90625 -28.09375 C 41.507812 -27.820312 41.128906 -27.835938 40.765625 -28.140625 C 40.328125 -28.304688 39.332031 -28.421875 37.78125 -28.484375 C 36.238281 -28.554688 34.300781 -28.597656 31.96875 -28.609375 C 29.644531 -28.628906 27.085938 -28.617188 24.296875 -28.578125 C 21.503906 -28.546875 18.632812 -28.503906 15.6875 -28.453125 C 12.75 -28.410156 9.898438 -28.351562 7.140625 -28.28125 C 6.109375 -23.957031 5.023438 -19.257812 3.890625 -14.1875 C 2.753906 -9.113281 1.640625 -3.96875 0.546875 1.25 C -0.878906 8.101562 -1.984375 13.722656 -2.765625 18.109375 C -3.546875 22.503906 -4.054688 25.679688 -4.296875 27.640625 C -4.222656 27.640625 -4.15625 27.65625 -4.09375 27.6875 C -3.820312 27.75 -3.632812 27.90625 -3.53125 28.15625 C -3.4375 28.40625 -3.441406 28.648438 -3.546875 28.890625 C -3.742188 29.453125 -3.96875 29.972656 -4.21875 30.453125 C -4.46875 30.941406 -4.804688 31.1875 -5.234375 31.1875 C -5.335938 31.1875 -5.457031 31.164062 -5.59375 31.125 C -6.050781 30.957031 -6.304688 30.597656 -6.359375 30.046875 C -6.410156 29.503906 -6.367188 28.75 -6.234375 27.78125 C -6.097656 26.382812 -5.800781 24.375 -5.34375 21.75 C -4.9375 19.289062 -4.414062 16.414062 -3.78125 13.125 C -3.15625 9.832031 -2.425781 6.222656 -1.59375 2.296875 C -0.5 -3.023438 0.628906 -8.3125 1.796875 -13.5625 C 2.960938 -18.820312 4.078125 -23.710938 5.140625 -28.234375 C 3.546875 -28.203125 2.03125 -28.171875 0.59375 -28.140625 C -0.832031 -28.109375 -2.128906 -28.070312 -3.296875 -28.03125 C -5.523438 -27.96875 -7.46875 -27.921875 -9.125 -27.890625 C -10.789062 -27.859375 -11.972656 -27.84375 -12.671875 -27.84375 C -12.941406 -27.84375 -13.164062 -27.929688 -13.34375 -28.109375 C -13.53125 -28.296875 -13.625 -28.519531 -13.625 -28.78125 C -13.625 -29.050781 -13.53125 -29.273438 -13.34375 -29.453125 C -13.164062 -29.640625 -12.941406 -29.734375 -12.671875 -29.734375 C -11.972656 -29.734375 -10.800781 -29.757812 -9.15625 -29.8125 C -7.507812 -29.863281 -5.570312 -29.921875 -3.34375 -29.984375 C -1.75 -30.015625 -0.203125 -30.046875 1.296875 -30.078125 C 2.796875 -30.117188 4.242188 -30.15625 5.640625 -30.1875 C 6.140625 -32.3125 6.628906 -34.3125 7.109375 -36.1875 C 7.585938 -38.070312 8.046875 -39.796875 8.484375 -41.359375 C 8.546875 -41.628906 8.691406 -41.828125 8.921875 -41.953125 C 9.160156 -42.085938 9.394531 -42.125 9.625 -42.0625 C 9.894531 -41.988281 10.09375 -41.835938 10.21875 -41.609375 C 10.351562 -41.378906 10.390625 -41.128906 10.328125 -40.859375 C 9.523438 -37.898438 8.609375 -34.359375 7.578125 -30.234375 C 12.765625 -30.335938 17.203125 -30.410156 20.890625 -30.453125 C 24.585938 -30.503906 27.679688 -30.53125 30.171875 -30.53125 C 32.671875 -30.53125 34.691406 -30.492188 36.234375 -30.421875 C 37.785156 -30.359375 38.957031 -30.285156 39.75 -30.203125 C 40.550781 -30.117188 41.117188 -30.007812 41.453125 -29.875 C 41.785156 -29.75 42.003906 -29.601562 42.109375 -29.4375 Z M 42.109375 -29.4375 "/></g></g></g><g fill="#000000" fill-opacity="1"><g transform="translate(21.853503, 49.708351)"><g><path d="M 16.859375 -11.125 C 17.097656 -10.988281 17.234375 -10.785156 17.265625 -10.515625 C 17.296875 -10.253906 17.242188 -10.023438 17.109375 -9.828125 C 15.148438 -7.097656 13.351562 -4.84375 11.71875 -3.0625 C 10.09375 -1.289062 8.460938 0.175781 6.828125 1.34375 C 5.597656 2.207031 4.382812 2.640625 3.1875 2.640625 C 2.257812 2.640625 1.445312 2.390625 0.75 1.890625 C 0.28125 1.554688 -0.175781 0.96875 -0.625 0.125 C -1.070312 -0.71875 -1.3125 -1.945312 -1.34375 -3.5625 C -1.375 -5.175781 -0.976562 -7.296875 -0.15625 -9.921875 C -0.15625 -9.921875 -0.15625 -9.941406 -0.15625 -9.984375 C 0.84375 -13.171875 2.015625 -15.601562 3.359375 -17.28125 C 4.710938 -18.96875 5.867188 -19.828125 6.828125 -19.859375 C 7.597656 -19.890625 8.097656 -19.554688 8.328125 -18.859375 C 8.691406 -17.890625 8.257812 -16.515625 7.03125 -14.734375 C 5.800781 -12.960938 3.988281 -11.078125 1.59375 -9.078125 C 0.863281 -6.753906 0.515625 -4.929688 0.546875 -3.609375 C 0.578125 -2.296875 0.757812 -1.347656 1.09375 -0.765625 C 1.425781 -0.191406 1.691406 0.175781 1.890625 0.34375 C 2.890625 1.082031 4.171875 0.882812 5.734375 -0.25 C 7.265625 -1.3125 8.8125 -2.695312 10.375 -4.40625 C 11.9375 -6.125 13.648438 -8.296875 15.515625 -10.921875 C 15.679688 -11.117188 15.894531 -11.242188 16.15625 -11.296875 C 16.425781 -11.347656 16.660156 -11.289062 16.859375 -11.125 Z M 6.484375 -17.765625 C 6.117188 -17.523438 5.617188 -17.03125 4.984375 -16.28125 C 4.359375 -15.539062 3.710938 -14.453125 3.046875 -13.015625 C 4.242188 -14.179688 5.09375 -15.171875 5.59375 -15.984375 C 6.09375 -16.804688 6.390625 -17.398438 6.484375 -17.765625 Z M 6.484375 -17.765625 "/></g></g></g><g fill="#000000" fill-opacity="1"><g transform="translate(36.369026, 49.708351)"><g><path d="M 14.671875 -46.75 C 15.097656 -46.113281 15.101562 -44.832031 14.6875 -42.90625 C 14.269531 -40.976562 13.410156 -38.59375 12.109375 -35.75 C 10.816406 -32.90625 9.09375 -29.753906 6.9375 -26.296875 C 6.90625 -26.265625 6.867188 -26.226562 6.828125 -26.1875 C 5.960938 -22.664062 5.109375 -19.070312 4.265625 -15.40625 C 3.421875 -11.75 2.613281 -8.15625 1.84375 -4.625 C 1.082031 -1.101562 0.382812 2.207031 -0.25 5.3125 C -0.882812 8.425781 -1.425781 11.195312 -1.875 13.625 C -2.320312 16.050781 -2.644531 17.992188 -2.84375 19.453125 C -2.8125 19.453125 -2.78125 19.453125 -2.75 19.453125 C -2.476562 19.554688 -2.285156 19.722656 -2.171875 19.953125 C -2.054688 20.191406 -2.046875 20.441406 -2.140625 20.703125 C -2.378906 21.335938 -2.625 21.910156 -2.875 22.421875 C -3.125 22.941406 -3.460938 23.203125 -3.890625 23.203125 C -3.992188 23.203125 -4.109375 23.1875 -4.234375 23.15625 C -4.535156 23.050781 -4.753906 22.835938 -4.890625 22.515625 C -5.023438 22.203125 -5.039062 21.570312 -4.9375 20.625 C -4.84375 19.675781 -4.628906 18.222656 -4.296875 16.265625 C -3.691406 12.671875 -2.789062 7.976562 -1.59375 2.1875 C -0.726562 -1.863281 0.175781 -5.992188 1.125 -10.203125 C 2.070312 -14.410156 3.007812 -18.46875 3.9375 -22.375 C 4.875 -26.28125 5.773438 -29.832031 6.640625 -33.03125 C 6.804688 -33.65625 7.050781 -34.535156 7.375 -35.671875 C 7.707031 -36.804688 8.09375 -38.019531 8.53125 -39.3125 C 8.96875 -40.613281 9.453125 -41.863281 9.984375 -43.0625 C 10.515625 -44.257812 11.0625 -45.25 11.625 -46.03125 C 12.1875 -46.8125 12.753906 -47.25 13.328125 -47.34375 C 13.890625 -47.445312 14.335938 -47.25 14.671875 -46.75 Z M 8.578125 -32.875 C 10.171875 -35.875 11.289062 -38.367188 11.9375 -40.359375 C 12.59375 -42.359375 12.972656 -43.804688 13.078125 -44.703125 C 12.609375 -44.035156 11.972656 -42.78125 11.171875 -40.9375 C 10.378906 -39.09375 9.515625 -36.40625 8.578125 -32.875 Z M 8.578125 -32.875 "/></g></g></g><g fill="#000000" fill-opacity="1"><g transform="translate(43.951, 49.708351)"><g><path d="M 14.625 -11.375 C 14.851562 -11.238281 14.988281 -11.035156 15.03125 -10.765625 C 15.082031 -10.503906 15.046875 -10.257812 14.921875 -10.03125 C 14.285156 -9.03125 13.484375 -7.914062 12.515625 -6.6875 C 11.554688 -5.457031 10.507812 -4.285156 9.375 -3.171875 C 8.25 -2.054688 7.128906 -1.128906 6.015625 -0.390625 C 4.898438 0.335938 3.875 0.703125 2.9375 0.703125 C 2.539062 0.703125 2.191406 0.632812 1.890625 0.5 C 0.765625 0 0.140625 -1.203125 0.015625 -3.109375 C -0.0976562 -5.023438 0.296875 -7.726562 1.203125 -11.21875 C 1.265625 -11.488281 1.410156 -11.691406 1.640625 -11.828125 C 1.878906 -11.960938 2.113281 -11.992188 2.34375 -11.921875 C 2.613281 -11.859375 2.8125 -11.707031 2.9375 -11.46875 C 3.070312 -11.238281 3.109375 -11.007812 3.046875 -10.78125 C 2.515625 -8.644531 2.179688 -6.953125 2.046875 -5.703125 C 1.910156 -4.460938 1.882812 -3.523438 1.96875 -2.890625 C 2.050781 -2.265625 2.175781 -1.84375 2.34375 -1.625 C 2.507812 -1.40625 2.609375 -1.296875 2.640625 -1.296875 C 3.078125 -1.097656 3.707031 -1.238281 4.53125 -1.71875 C 5.363281 -2.195312 6.296875 -2.910156 7.328125 -3.859375 C 8.359375 -4.804688 9.398438 -5.90625 10.453125 -7.15625 C 11.503906 -8.40625 12.441406 -9.710938 13.265625 -11.078125 C 13.429688 -11.304688 13.640625 -11.445312 13.890625 -11.5 C 14.140625 -11.550781 14.382812 -11.507812 14.625 -11.375 Z M 2.84375 -15.359375 C 2.175781 -15.398438 1.832031 -15.59375 1.8125 -15.9375 C 1.800781 -16.289062 1.953125 -16.648438 2.265625 -17.015625 C 2.585938 -17.378906 2.914062 -17.628906 3.25 -17.765625 C 3.78125 -17.929688 4.171875 -17.894531 4.421875 -17.65625 C 4.671875 -17.425781 4.785156 -17.128906 4.765625 -16.765625 C 4.742188 -16.398438 4.578125 -16.066406 4.265625 -15.765625 C 3.953125 -15.460938 3.476562 -15.328125 2.84375 -15.359375 Z M 2.84375 -15.359375 "/></g></g></g><g fill="#000000" fill-opacity="1"><g transform="translate(56.57103, 49.708351)"><g><path d="M 16.859375 -11.125 C 17.097656 -10.988281 17.234375 -10.785156 17.265625 -10.515625 C 17.296875 -10.253906 17.242188 -10.023438 17.109375 -9.828125 C 15.148438 -7.097656 13.351562 -4.84375 11.71875 -3.0625 C 10.09375 -1.289062 8.460938 0.175781 6.828125 1.34375 C 5.597656 2.207031 4.382812 2.640625 3.1875 2.640625 C 2.257812 2.640625 1.445312 2.390625 0.75 1.890625 C 0.28125 1.554688 -0.175781 0.96875 -0.625 0.125 C -1.070312 -0.71875 -1.3125 -1.945312 -1.34375 -3.5625 C -1.375 -5.175781 -0.976562 -7.296875 -0.15625 -9.921875 C -0.15625 -9.921875 -0.15625 -9.941406 -0.15625 -9.984375 C 0.84375 -13.171875 2.015625 -15.601562 3.359375 -17.28125 C 4.710938 -18.96875 5.867188 -19.828125 6.828125 -19.859375 C 7.597656 -19.890625 8.097656 -19.554688 8.328125 -18.859375 C 8.691406 -17.890625 8.257812 -16.515625 7.03125 -14.734375 C 5.800781 -12.960938 3.988281 -11.078125 1.59375 -9.078125 C 0.863281 -6.753906 0.515625 -4.929688 0.546875 -3.609375 C 0.578125 -2.296875 0.757812 -1.347656 1.09375 -0.765625 C 1.425781 -0.191406 1.691406 0.175781 1.890625 0.34375 C 2.890625 1.082031 4.171875 0.882812 5.734375 -0.25 C 7.265625 -1.3125 8.8125 -2.695312 10.375 -4.40625 C 11.9375 -6.125 13.648438 -8.296875 15.515625 -10.921875 C 15.679688 -11.117188 15.894531 -11.242188 16.15625 -11.296875 C 16.425781 -11.347656 16.660156 -11.289062 16.859375 -11.125 Z M 6.484375 -17.765625 C 6.117188 -17.523438 5.617188 -17.03125 4.984375 -16.28125 C 4.359375 -15.539062 3.710938 -14.453125 3.046875 -13.015625 C 4.242188 -14.179688 5.09375 -15.171875 5.59375 -15.984375 C 6.09375 -16.804688 6.390625 -17.398438 6.484375 -17.765625 Z M 6.484375 -17.765625 "/></g></g></g><g fill="#000000" fill-opacity="1"><g transform="translate(71.086553, 49.708351)"><g><path d="M 21.90625 -11.328125 C 22.132812 -11.191406 22.296875 -11 22.390625 -10.75 C 22.492188 -10.5 22.476562 -10.257812 22.34375 -10.03125 C 21.71875 -8.664062 20.945312 -7.132812 20.03125 -5.4375 C 19.113281 -3.738281 18.140625 -2.03125 17.109375 -0.3125 C 16.078125 1.394531 15.03125 2.953125 13.96875 4.359375 C 12.90625 5.773438 11.875 6.921875 10.875 7.796875 C 9.875 8.679688 8.976562 9.125 8.1875 9.125 C 7.945312 9.125 7.726562 9.078125 7.53125 8.984375 C 6.832031 8.710938 6.375 8.078125 6.15625 7.078125 C 5.945312 6.085938 5.972656 4.660156 6.234375 2.796875 C 6.703125 -0.566406 7.929688 -5.320312 9.921875 -11.46875 C 9.890625 -11.46875 9.863281 -11.457031 9.84375 -11.4375 C 9.832031 -11.425781 9.8125 -11.421875 9.78125 -11.421875 C 9.113281 -10.953125 8.3125 -10.46875 7.375 -9.96875 C 6.445312 -9.476562 5.484375 -9.148438 4.484375 -8.984375 C 3.492188 -8.816406 2.546875 -9.03125 1.640625 -9.625 C 0.378906 -10.519531 -0.265625 -11.765625 -0.296875 -13.359375 C -0.328125 -14.960938 0.269531 -16.710938 1.5 -18.609375 C 1.894531 -19.203125 2.414062 -19.863281 3.0625 -20.59375 C 3.71875 -21.332031 4.398438 -21.898438 5.109375 -22.296875 C 5.828125 -22.703125 6.46875 -22.71875 7.03125 -22.34375 C 7.332031 -22.175781 7.554688 -21.894531 7.703125 -21.5 C 7.859375 -21.101562 7.851562 -20.488281 7.6875 -19.65625 C 7.519531 -18.820312 7.117188 -17.707031 6.484375 -16.3125 C 5.847656 -14.914062 4.898438 -13.101562 3.640625 -10.875 C 4.410156 -10.769531 5.269531 -10.984375 6.21875 -11.515625 C 7.164062 -12.054688 8.003906 -12.554688 8.734375 -13.015625 C 9.429688 -13.484375 10.007812 -13.828125 10.46875 -14.046875 C 10.9375 -14.265625 11.375 -14.222656 11.78125 -13.921875 C 12.144531 -13.617188 12.289062 -13.25 12.21875 -12.8125 C 12.15625 -12.382812 12.09375 -12.054688 12.03125 -11.828125 C 10.925781 -8.367188 10.070312 -5.488281 9.46875 -3.1875 C 8.875 -0.894531 8.46875 0.945312 8.25 2.34375 C 8.039062 3.738281 7.9375 4.785156 7.9375 5.484375 C 7.9375 6.179688 7.984375 6.640625 8.078125 6.859375 C 8.179688 7.078125 8.234375 7.203125 8.234375 7.234375 C 8.628906 7.296875 9.453125 6.65625 10.703125 5.3125 C 11.953125 3.96875 13.441406 1.941406 15.171875 -0.765625 C 16.898438 -3.484375 18.710938 -6.835938 20.609375 -10.828125 C 20.734375 -11.085938 20.921875 -11.257812 21.171875 -11.34375 C 21.421875 -11.425781 21.664062 -11.421875 21.90625 -11.328125 Z M 1.796875 -14.71875 C 1.597656 -14.019531 1.539062 -13.445312 1.625 -13 C 1.707031 -12.550781 1.832031 -12.191406 2 -11.921875 C 3.0625 -13.785156 3.863281 -15.296875 4.40625 -16.453125 C 4.957031 -17.617188 5.332031 -18.519531 5.53125 -19.15625 C 5.738281 -19.789062 5.859375 -20.238281 5.890625 -20.5 C 5.523438 -20.300781 5.066406 -19.921875 4.515625 -19.359375 C 3.960938 -18.796875 3.425781 -18.113281 2.90625 -17.3125 C 2.394531 -16.507812 2.023438 -15.644531 1.796875 -14.71875 Z M 1.796875 -14.71875 "/></g></g></g></g></g><g transform="matrix(1, 0, 0, 1, 67, 0)"><g clip-path="url(#d6fb55faf0)"><g fill="#97806f" fill-opacity="1"><g transform="translate(0.363052, 253.272069)"><g><path d="M 16.34375 0 L 16.34375 -4.171875 C 21.257812 -5.660156 24.625 -8.863281 26.4375 -13.78125 C 28.257812 -18.695312 29.171875 -27.675781 29.171875 -40.71875 L 29.171875 -183.703125 C 29.171875 -196.953125 28.257812 -205.976562 26.4375 -210.78125 C 24.625 -215.59375 21.257812 -218.75 16.34375 -220.25 L 16.34375 -224.421875 L 92.96875 -224.421875 C 114.988281 -224.421875 133.796875 -221.265625 149.390625 -214.953125 C 164.992188 -208.648438 177.710938 -200.257812 187.546875 -189.78125 C 197.378906 -179.3125 204.59375 -167.71875 209.1875 -155 C 213.78125 -142.289062 216.078125 -129.414062 216.078125 -116.375 C 216.296875 -93.9375 211.648438 -73.953125 202.140625 -56.421875 C 192.628906 -38.898438 179.160156 -25.113281 161.734375 -15.0625 C 144.316406 -5.019531 123.851562 0 100.34375 0 Z M 55.46875 -28.21875 C 55.46875 -20.726562 56.75 -14.953125 59.3125 -10.890625 C 61.875 -6.835938 67.535156 -4.8125 76.296875 -4.8125 L 99.703125 -4.8125 C 127.703125 -4.8125 149.234375 -12.878906 164.296875 -29.015625 C 179.367188 -45.148438 186.90625 -69.992188 186.90625 -103.546875 C 186.90625 -124.921875 182.738281 -144.367188 174.40625 -161.890625 C 166.070312 -179.421875 153.78125 -193.421875 137.53125 -203.890625 C 121.289062 -214.367188 101.203125 -219.609375 77.265625 -219.609375 L 55.46875 -219.609375 Z M 55.46875 -28.21875 "/></g></g></g></g></g><g clip-path="url(#ca3ca3b95d)"><g transform="matrix(1, 0, 0, 1, 82, 123)"><g clip-path="url(#e81abdebdd)"><g clip-path="url(#4e1e78216f)"><path fill="#f6f3f0" d="M 0.0234375 0.839844 L 203.777344 0.839844 L 203.777344 46.675781 L 0.0234375 46.675781 Z M 0.0234375 0.839844 " fill-opacity="1" fill-rule="nonzero"/></g></g></g></g><g transform="matrix(1, 0, 0, 1, 193, 264)"><g clip-path="url(#de3420a3c5)"><g fill="#000000" fill-opacity="1"><g transform="translate(1.093136, 49.519878)"><g><path d="M 48.0625 -11.265625 C 48.21875 -11.035156 48.269531 -10.796875 48.21875 -10.546875 C 48.175781 -10.304688 48.039062 -10.101562 47.8125 -9.9375 C 42.726562 -6.289062 38.085938 -2.847656 33.890625 0.390625 C 34.316406 1.734375 34.363281 3.210938 34.03125 4.828125 C 33.507812 7.609375 32.566406 10.203125 31.203125 12.609375 C 29.847656 15.023438 28.257812 17.222656 26.4375 19.203125 C 24.613281 21.191406 22.707031 22.898438 20.71875 24.328125 C 18.738281 25.753906 16.847656 26.867188 15.046875 27.671875 C 13.242188 28.472656 11.6875 28.921875 10.375 29.015625 C 10.175781 29.046875 10 29.0625 9.84375 29.0625 C 8.820312 29.0625 8.097656 28.859375 7.671875 28.453125 C 7.242188 28.046875 6.96875 27.660156 6.84375 27.296875 C 6.082031 25.234375 7.84375 21.832031 12.125 17.09375 C 16.40625 12.351562 22.890625 6.585938 31.578125 -0.203125 C 30.492188 -2.128906 28.320312 -3.910156 25.0625 -5.546875 C 21.800781 -7.191406 17.476562 -9.097656 12.09375 -11.265625 C 11.476562 -11.523438 10.84375 -11.785156 10.1875 -12.046875 C 9.53125 -12.304688 8.859375 -12.585938 8.171875 -12.890625 C 5.804688 -13.867188 4.164062 -15.191406 3.25 -16.859375 C 2.332031 -18.535156 2.21875 -20.457031 2.90625 -22.625 C 3.425781 -24.300781 4.34375 -26.003906 5.65625 -27.734375 C 6.96875 -29.472656 8.554688 -31.203125 10.421875 -32.921875 C 12.296875 -34.648438 14.332031 -36.289062 16.53125 -37.84375 C 18.726562 -39.40625 20.972656 -40.820312 23.265625 -42.09375 C 25.554688 -43.375 27.800781 -44.457031 30 -45.34375 C 32.195312 -46.226562 34.222656 -46.851562 36.078125 -47.21875 C 37.929688 -47.582031 39.5 -47.613281 40.78125 -47.3125 C 41.300781 -47.1875 41.878906 -46.941406 42.515625 -46.578125 C 43.160156 -46.222656 43.671875 -45.640625 44.046875 -44.828125 C 44.421875 -44.023438 44.523438 -42.921875 44.359375 -41.515625 C 44.296875 -41.253906 44.164062 -41.046875 43.96875 -40.890625 C 43.769531 -40.742188 43.539062 -40.691406 43.28125 -40.734375 C 43.019531 -40.765625 42.804688 -40.882812 42.640625 -41.09375 C 42.484375 -41.3125 42.421875 -41.550781 42.453125 -41.8125 C 42.648438 -43.1875 42.5 -44.101562 42 -44.5625 C 41.507812 -45.019531 40.972656 -45.316406 40.390625 -45.453125 C 39.140625 -45.742188 37.488281 -45.644531 35.4375 -45.15625 C 33.382812 -44.664062 31.097656 -43.835938 28.578125 -42.671875 C 26.054688 -41.503906 23.46875 -40.066406 20.8125 -38.359375 C 17.988281 -36.585938 15.453125 -34.742188 13.203125 -32.828125 C 10.960938 -30.910156 9.109375 -29.035156 7.640625 -27.203125 C 6.179688 -25.367188 5.207031 -23.660156 4.71875 -22.078125 C 3.632812 -18.703125 5.03125 -16.210938 8.90625 -14.609375 C 9.59375 -14.347656 10.253906 -14.082031 10.890625 -13.8125 C 11.535156 -13.550781 12.1875 -13.289062 12.84375 -13.03125 C 16.15625 -11.6875 19.160156 -10.414062 21.859375 -9.21875 C 24.566406 -8.019531 26.878906 -6.796875 28.796875 -5.546875 C 30.710938 -4.304688 32.148438 -2.914062 33.109375 -1.375 C 37.234375 -4.59375 41.773438 -7.953125 46.734375 -11.453125 C 46.960938 -11.617188 47.195312 -11.675781 47.4375 -11.625 C 47.6875 -11.582031 47.894531 -11.460938 48.0625 -11.265625 Z M 32.21875 4.421875 C 32.414062 3.441406 32.429688 2.523438 32.265625 1.671875 C 25.285156 7.148438 19.742188 11.972656 15.640625 16.140625 C 13.242188 18.597656 11.40625 20.785156 10.125 22.703125 C 8.851562 24.617188 8.347656 25.9375 8.609375 26.65625 C 8.703125 26.914062 8.929688 27.070312 9.296875 27.125 C 9.660156 27.175781 9.972656 27.1875 10.234375 27.15625 C 11.316406 27.082031 12.675781 26.671875 14.3125 25.921875 C 15.945312 25.171875 17.679688 24.128906 19.515625 22.796875 C 21.359375 21.472656 23.148438 19.890625 24.890625 18.046875 C 26.628906 16.210938 28.15625 14.144531 29.46875 11.84375 C 30.78125 9.550781 31.695312 7.078125 32.21875 4.421875 Z M 32.21875 4.421875 "/></g></g></g><g fill="#000000" fill-opacity="1"><g transform="translate(47.221013, 49.519878)"><g><path d="M 20.609375 -10.921875 C 20.835938 -10.816406 20.992188 -10.640625 21.078125 -10.390625 C 21.160156 -10.148438 21.148438 -9.914062 21.046875 -9.6875 C 20.429688 -8.40625 19.753906 -7.125 19.015625 -5.84375 C 18.273438 -4.570312 17.503906 -3.398438 16.703125 -2.328125 C 15.898438 -1.265625 15.070312 -0.414062 14.21875 0.21875 C 13.363281 0.863281 12.507812 1.1875 11.65625 1.1875 C 11.488281 1.1875 11.304688 1.164062 11.109375 1.125 C 8.921875 0.695312 7.5625 -2.25 7.03125 -7.71875 C 6.476562 -6.96875 5.832031 -6.125 5.09375 -5.1875 C 4.351562 -4.25 3.570312 -3.320312 2.75 -2.40625 C 2.625 -2.28125 2.410156 -2.078125 2.109375 -1.796875 C 1.816406 -1.515625 1.472656 -1.289062 1.078125 -1.125 C 0.679688 -0.96875 0.289062 -0.988281 -0.09375 -1.1875 C -0.882812 -1.476562 -1.265625 -2.328125 -1.234375 -3.734375 C -1.234375 -4.554688 -1.078125 -5.570312 -0.765625 -6.78125 C -0.453125 -8 -0.0078125 -9.222656 0.5625 -10.453125 C 1.132812 -11.679688 1.804688 -12.769531 2.578125 -13.71875 C 3.347656 -14.675781 4.210938 -15.316406 5.171875 -15.640625 C 5.753906 -15.867188 6.472656 -15.910156 7.328125 -15.765625 C 8.179688 -15.617188 9.066406 -15.003906 9.984375 -13.921875 C 10.148438 -13.722656 10.222656 -13.492188 10.203125 -13.234375 C 10.191406 -12.972656 10.085938 -12.757812 9.890625 -12.59375 C 9.691406 -12.425781 9.457031 -12.347656 9.1875 -12.359375 C 8.925781 -12.378906 8.71875 -12.488281 8.5625 -12.6875 C 7.769531 -13.601562 7.085938 -14.035156 6.515625 -13.984375 C 5.941406 -13.941406 5.457031 -13.773438 5.0625 -13.484375 C 4.34375 -12.953125 3.6875 -12.191406 3.09375 -11.203125 C 2.507812 -10.222656 2.019531 -9.191406 1.625 -8.109375 C 1.226562 -7.035156 0.945312 -6.03125 0.78125 -5.09375 C 0.625 -4.15625 0.578125 -3.472656 0.640625 -3.046875 C 0.734375 -3.109375 0.835938 -3.1875 0.953125 -3.28125 C 1.066406 -3.382812 1.191406 -3.519531 1.328125 -3.6875 C 2.304688 -4.769531 3.207031 -5.84375 4.03125 -6.90625 C 4.851562 -7.976562 5.554688 -8.921875 6.140625 -9.734375 C 6.304688 -9.960938 6.460938 -10.179688 6.609375 -10.390625 C 6.765625 -10.609375 6.90625 -10.800781 7.03125 -10.96875 C 7.289062 -11.289062 7.632812 -11.390625 8.0625 -11.265625 C 8.488281 -11.160156 8.71875 -10.878906 8.75 -10.421875 C 8.851562 -8.296875 9.023438 -6.582031 9.265625 -5.28125 C 9.515625 -3.988281 9.785156 -3.019531 10.078125 -2.375 C 10.378906 -1.738281 10.660156 -1.304688 10.921875 -1.078125 C 11.179688 -0.847656 11.378906 -0.734375 11.515625 -0.734375 C 12.128906 -0.609375 13.125 -1.25 14.5 -2.65625 C 15.882812 -4.0625 17.492188 -6.671875 19.328125 -10.484375 C 19.460938 -10.742188 19.648438 -10.910156 19.890625 -10.984375 C 20.140625 -11.066406 20.378906 -11.046875 20.609375 -10.921875 Z M 20.609375 -10.921875 "/></g></g></g><g fill="#000000" fill-opacity="1"><g transform="translate(65.514807, 49.519878)"><g><path d="M 21.59375 -11.171875 C 21.820312 -11.035156 21.984375 -10.84375 22.078125 -10.59375 C 22.179688 -10.351562 22.164062 -10.117188 22.03125 -9.890625 C 21.40625 -8.546875 20.640625 -7.035156 19.734375 -5.359375 C 18.835938 -3.691406 17.878906 -2.007812 16.859375 -0.3125 C 15.847656 1.375 14.816406 2.910156 13.765625 4.296875 C 12.722656 5.691406 11.707031 6.820312 10.71875 7.6875 C 9.738281 8.5625 8.851562 9 8.0625 9 C 7.832031 9 7.617188 8.953125 7.421875 8.859375 C 6.734375 8.585938 6.28125 7.960938 6.0625 6.984375 C 5.851562 6.003906 5.878906 4.59375 6.140625 2.75 C 6.609375 -0.5625 7.820312 -5.25 9.78125 -11.3125 C 9.75 -11.3125 9.722656 -11.300781 9.703125 -11.28125 C 9.691406 -11.269531 9.671875 -11.265625 9.640625 -11.265625 C 8.984375 -10.804688 8.195312 -10.328125 7.28125 -9.828125 C 6.363281 -9.335938 5.410156 -9.007812 4.421875 -8.84375 C 3.441406 -8.6875 2.507812 -8.90625 1.625 -9.5 C 0.375 -10.382812 -0.265625 -11.613281 -0.296875 -13.1875 C -0.328125 -14.757812 0.257812 -16.476562 1.46875 -18.34375 C 1.863281 -18.9375 2.378906 -19.59375 3.015625 -20.3125 C 3.660156 -21.03125 4.332031 -21.585938 5.03125 -21.984375 C 5.738281 -22.378906 6.375 -22.394531 6.9375 -22.03125 C 7.226562 -21.875 7.445312 -21.597656 7.59375 -21.203125 C 7.75 -20.804688 7.742188 -20.195312 7.578125 -19.375 C 7.410156 -18.5625 7.015625 -17.460938 6.390625 -16.078125 C 5.765625 -14.703125 4.832031 -12.914062 3.59375 -10.71875 C 4.34375 -10.625 5.1875 -10.835938 6.125 -11.359375 C 7.0625 -11.890625 7.890625 -12.382812 8.609375 -12.84375 C 9.296875 -13.300781 9.867188 -13.632812 10.328125 -13.84375 C 10.785156 -14.0625 11.210938 -14.019531 11.609375 -13.71875 C 11.972656 -13.425781 12.117188 -13.066406 12.046875 -12.640625 C 11.984375 -12.210938 11.921875 -11.882812 11.859375 -11.65625 C 10.773438 -8.25 9.9375 -5.410156 9.34375 -3.140625 C 8.75 -0.878906 8.347656 0.9375 8.140625 2.3125 C 7.929688 3.6875 7.828125 4.71875 7.828125 5.40625 C 7.828125 6.09375 7.875 6.539062 7.96875 6.75 C 8.0625 6.96875 8.109375 7.09375 8.109375 7.125 C 8.503906 7.195312 9.316406 6.566406 10.546875 5.234375 C 11.773438 3.910156 13.242188 1.914062 14.953125 -0.75 C 16.660156 -3.425781 18.445312 -6.734375 20.3125 -10.671875 C 20.445312 -10.929688 20.632812 -11.101562 20.875 -11.1875 C 21.125 -11.269531 21.363281 -11.265625 21.59375 -11.171875 Z M 1.765625 -14.515625 C 1.566406 -13.828125 1.507812 -13.257812 1.59375 -12.8125 C 1.675781 -12.375 1.800781 -12.019531 1.96875 -11.75 C 3.019531 -13.59375 3.816406 -15.085938 4.359375 -16.234375 C 4.898438 -17.378906 5.265625 -18.265625 5.453125 -18.890625 C 5.648438 -19.515625 5.765625 -19.957031 5.796875 -20.21875 C 5.441406 -20.019531 4.992188 -19.640625 4.453125 -19.078125 C 3.910156 -18.523438 3.382812 -17.851562 2.875 -17.0625 C 2.363281 -16.28125 1.992188 -15.429688 1.765625 -14.515625 Z M 1.765625 -14.515625 "/></g></g></g><g fill="#000000" fill-opacity="1"><g transform="translate(84.841277, 49.519878)"><g><path d="M 41.515625 -29.015625 C 41.679688 -28.816406 41.742188 -28.585938 41.703125 -28.328125 C 41.671875 -28.066406 41.539062 -27.851562 41.3125 -27.6875 C 40.925781 -27.425781 40.550781 -27.441406 40.1875 -27.734375 C 39.757812 -27.898438 38.78125 -28.015625 37.25 -28.078125 C 35.726562 -28.148438 33.820312 -28.191406 31.53125 -28.203125 C 29.238281 -28.222656 26.710938 -28.21875 23.953125 -28.1875 C 21.203125 -28.15625 18.375 -28.113281 15.46875 -28.0625 C 12.5625 -28.007812 9.75 -27.953125 7.03125 -27.890625 C 6.019531 -23.628906 4.957031 -19 3.84375 -14 C 2.726562 -9 1.628906 -3.921875 0.546875 1.234375 C -0.867188 7.984375 -1.960938 13.519531 -2.734375 17.84375 C -3.503906 22.175781 -4.003906 25.3125 -4.234375 27.25 C -4.160156 27.25 -4.09375 27.265625 -4.03125 27.296875 C -3.769531 27.359375 -3.585938 27.515625 -3.484375 27.765625 C -3.390625 28.015625 -3.394531 28.253906 -3.5 28.484375 C -3.6875 29.035156 -3.90625 29.546875 -4.15625 30.015625 C -4.40625 30.492188 -4.742188 30.734375 -5.171875 30.734375 C -5.265625 30.734375 -5.378906 30.71875 -5.515625 30.6875 C -5.972656 30.53125 -6.222656 30.179688 -6.265625 29.640625 C -6.316406 29.097656 -6.273438 28.347656 -6.140625 27.390625 C -6.015625 26.015625 -5.722656 24.035156 -5.265625 21.453125 C -4.867188 19.023438 -4.359375 16.1875 -3.734375 12.9375 C -3.109375 9.6875 -2.390625 6.128906 -1.578125 2.265625 C -0.492188 -2.984375 0.617188 -8.195312 1.765625 -13.375 C 2.921875 -18.5625 4.019531 -23.382812 5.0625 -27.84375 C 3.488281 -27.8125 1.992188 -27.773438 0.578125 -27.734375 C -0.828125 -27.703125 -2.101562 -27.671875 -3.25 -27.640625 C -5.445312 -27.578125 -7.363281 -27.53125 -9 -27.5 C -10.632812 -27.46875 -11.800781 -27.453125 -12.5 -27.453125 C -12.757812 -27.453125 -12.976562 -27.539062 -13.15625 -27.71875 C -13.332031 -27.894531 -13.421875 -28.113281 -13.421875 -28.375 C -13.421875 -28.644531 -13.332031 -28.867188 -13.15625 -29.046875 C -12.976562 -29.222656 -12.757812 -29.3125 -12.5 -29.3125 C -11.800781 -29.3125 -10.640625 -29.335938 -9.015625 -29.390625 C -7.398438 -29.441406 -5.492188 -29.5 -3.296875 -29.5625 C -1.722656 -29.59375 -0.195312 -29.625 1.28125 -29.65625 C 2.757812 -29.6875 4.1875 -29.722656 5.5625 -29.765625 C 6.050781 -31.859375 6.53125 -33.832031 7 -35.6875 C 7.476562 -37.539062 7.929688 -39.238281 8.359375 -40.78125 C 8.421875 -41.039062 8.566406 -41.234375 8.796875 -41.359375 C 9.035156 -41.492188 9.269531 -41.53125 9.5 -41.46875 C 9.757812 -41.394531 9.953125 -41.242188 10.078125 -41.015625 C 10.210938 -40.785156 10.25 -40.539062 10.1875 -40.28125 C 9.394531 -37.363281 8.488281 -33.875 7.46875 -29.8125 C 12.59375 -29.90625 16.972656 -29.976562 20.609375 -30.03125 C 24.242188 -30.082031 27.289062 -30.109375 29.75 -30.109375 C 32.21875 -30.109375 34.210938 -30.070312 35.734375 -30 C 37.253906 -29.9375 38.410156 -29.863281 39.203125 -29.78125 C 39.992188 -29.695312 40.550781 -29.585938 40.875 -29.453125 C 41.195312 -29.328125 41.410156 -29.179688 41.515625 -29.015625 Z M 41.515625 -29.015625 "/></g></g></g><g fill="#000000" fill-opacity="1"><g transform="translate(91.381804, 49.519878)"><g><path d="M 17.8125 -10.71875 C 18.039062 -10.5625 18.171875 -10.347656 18.203125 -10.078125 C 18.234375 -9.816406 18.164062 -9.585938 18 -9.390625 C 17.144531 -8.304688 16.148438 -7.335938 15.015625 -6.484375 C 13.890625 -5.640625 12.710938 -5.007812 11.484375 -4.59375 C 10.253906 -4.1875 9.066406 -4.113281 7.921875 -4.375 C 7.460938 -3.226562 6.8125 -2.34375 5.96875 -1.71875 C 5.132812 -1.09375 4.289062 -0.78125 3.4375 -0.78125 C 3.4375 -0.78125 3.425781 -0.78125 3.40625 -0.78125 C 3.394531 -0.78125 3.390625 -0.78125 3.390625 -0.78125 C 2.503906 -0.820312 1.722656 -1.128906 1.046875 -1.703125 C 0.378906 -2.273438 -0.0820312 -3.066406 -0.34375 -4.078125 C -0.632812 -5.222656 -0.679688 -6.3125 -0.484375 -7.34375 C -0.296875 -8.382812 0.0546875 -9.296875 0.578125 -10.078125 C 1.109375 -10.867188 1.703125 -11.476562 2.359375 -11.90625 C 2.585938 -12.070312 2.847656 -12.101562 3.140625 -12 C 3.441406 -12.71875 3.863281 -13.273438 4.40625 -13.671875 C 4.945312 -14.066406 5.507812 -14.210938 6.09375 -14.109375 C 6.457031 -14.046875 6.851562 -13.828125 7.28125 -13.453125 C 7.707031 -13.078125 8.050781 -12.40625 8.3125 -11.4375 C 8.570312 -10.46875 8.65625 -9.050781 8.5625 -7.1875 C 8.53125 -6.851562 8.476562 -6.523438 8.40625 -6.203125 C 9.289062 -6.035156 10.222656 -6.128906 11.203125 -6.484375 C 12.191406 -6.847656 13.144531 -7.398438 14.0625 -8.140625 C 14.976562 -8.878906 15.785156 -9.691406 16.484375 -10.578125 C 16.640625 -10.773438 16.847656 -10.890625 17.109375 -10.921875 C 17.378906 -10.953125 17.613281 -10.882812 17.8125 -10.71875 Z M 3.4375 -2.703125 C 3.863281 -2.703125 4.335938 -2.898438 4.859375 -3.296875 C 5.390625 -3.691406 5.816406 -4.28125 6.140625 -5.0625 C 4.960938 -5.71875 4.117188 -6.472656 3.609375 -7.328125 C 3.109375 -8.179688 2.835938 -9.035156 2.796875 -9.890625 C 2.109375 -9.234375 1.65625 -8.394531 1.4375 -7.375 C 1.226562 -6.363281 1.238281 -5.445312 1.46875 -4.625 C 1.570312 -4.257812 1.769531 -3.847656 2.0625 -3.390625 C 2.363281 -2.929688 2.820312 -2.703125 3.4375 -2.703125 Z M 6.640625 -7.28125 C 6.703125 -8.59375 6.675781 -9.609375 6.5625 -10.328125 C 6.445312 -11.046875 6.304688 -11.535156 6.140625 -11.796875 C 5.984375 -12.066406 5.867188 -12.21875 5.796875 -12.25 C 5.765625 -12.25 5.75 -12.25 5.75 -12.25 C 5.65625 -12.25 5.507812 -12.148438 5.3125 -11.953125 C 5.113281 -11.753906 4.953125 -11.457031 4.828125 -11.0625 C 4.628906 -10.4375 4.644531 -9.753906 4.875 -9.015625 C 5.101562 -8.285156 5.691406 -7.609375 6.640625 -6.984375 C 6.640625 -7.078125 6.640625 -7.175781 6.640625 -7.28125 Z M 6.640625 -7.28125 "/></g></g></g><g fill="#000000" fill-opacity="1"><g transform="translate(106.82332, 49.519878)"><g><path d="M 21.59375 -11.171875 C 21.820312 -11.035156 21.984375 -10.84375 22.078125 -10.59375 C 22.179688 -10.351562 22.164062 -10.117188 22.03125 -9.890625 C 21.40625 -8.546875 20.640625 -7.035156 19.734375 -5.359375 C 18.835938 -3.691406 17.878906 -2.007812 16.859375 -0.3125 C 15.847656 1.375 14.816406 2.910156 13.765625 4.296875 C 12.722656 5.691406 11.707031 6.820312 10.71875 7.6875 C 9.738281 8.5625 8.851562 9 8.0625 9 C 7.832031 9 7.617188 8.953125 7.421875 8.859375 C 6.734375 8.585938 6.28125 7.960938 6.0625 6.984375 C 5.851562 6.003906 5.878906 4.59375 6.140625 2.75 C 6.609375 -0.5625 7.820312 -5.25 9.78125 -11.3125 C 9.75 -11.3125 9.722656 -11.300781 9.703125 -11.28125 C 9.691406 -11.269531 9.671875 -11.265625 9.640625 -11.265625 C 8.984375 -10.804688 8.195312 -10.328125 7.28125 -9.828125 C 6.363281 -9.335938 5.410156 -9.007812 4.421875 -8.84375 C 3.441406 -8.6875 2.507812 -8.90625 1.625 -9.5 C 0.375 -10.382812 -0.265625 -11.613281 -0.296875 -13.1875 C -0.328125 -14.757812 0.257812 -16.476562 1.46875 -18.34375 C 1.863281 -18.9375 2.378906 -19.59375 3.015625 -20.3125 C 3.660156 -21.03125 4.332031 -21.585938 5.03125 -21.984375 C 5.738281 -22.378906 6.375 -22.394531 6.9375 -22.03125 C 7.226562 -21.875 7.445312 -21.597656 7.59375 -21.203125 C 7.75 -20.804688 7.742188 -20.195312 7.578125 -19.375 C 7.410156 -18.5625 7.015625 -17.460938 6.390625 -16.078125 C 5.765625 -14.703125 4.832031 -12.914062 3.59375 -10.71875 C 4.34375 -10.625 5.1875 -10.835938 6.125 -11.359375 C 7.0625 -11.890625 7.890625 -12.382812 8.609375 -12.84375 C 9.296875 -13.300781 9.867188 -13.632812 10.328125 -13.84375 C 10.785156 -14.0625 11.210938 -14.019531 11.609375 -13.71875 C 11.972656 -13.425781 12.117188 -13.066406 12.046875 -12.640625 C 11.984375 -12.210938 11.921875 -11.882812 11.859375 -11.65625 C 10.773438 -8.25 9.9375 -5.410156 9.34375 -3.140625 C 8.75 -0.878906 8.347656 0.9375 8.140625 2.3125 C 7.929688 3.6875 7.828125 4.71875 7.828125 5.40625 C 7.828125 6.09375 7.875 6.539062 7.96875 6.75 C 8.0625 6.96875 8.109375 7.09375 8.109375 7.125 C 8.503906 7.195312 9.316406 6.566406 10.546875 5.234375 C 11.773438 3.910156 13.242188 1.914062 14.953125 -0.75 C 16.660156 -3.425781 18.445312 -6.734375 20.3125 -10.671875 C 20.445312 -10.929688 20.632812 -11.101562 20.875 -11.1875 C 21.125 -11.269531 21.363281 -11.265625 21.59375 -11.171875 Z M 1.765625 -14.515625 C 1.566406 -13.828125 1.507812 -13.257812 1.59375 -12.8125 C 1.675781 -12.375 1.800781 -12.019531 1.96875 -11.75 C 3.019531 -13.59375 3.816406 -15.085938 4.359375 -16.234375 C 4.898438 -17.378906 5.265625 -18.265625 5.453125 -18.890625 C 5.648438 -19.515625 5.765625 -19.957031 5.796875 -20.21875 C 5.441406 -20.019531 4.992188 -19.640625 4.453125 -19.078125 C 3.910156 -18.523438 3.382812 -17.851562 2.875 -17.0625 C 2.363281 -16.28125 1.992188 -15.429688 1.765625 -14.515625 Z M 1.765625 -14.515625 "/></g></g></g><g fill="#000000" fill-opacity="1"><g transform="translate(126.14979, 49.519878)"><g><path d="M 14.40625 -11.21875 C 14.632812 -11.082031 14.773438 -10.882812 14.828125 -10.625 C 14.878906 -10.363281 14.835938 -10.117188 14.703125 -9.890625 C 14.078125 -8.898438 13.289062 -7.796875 12.34375 -6.578125 C 11.394531 -5.367188 10.363281 -4.210938 9.25 -3.109375 C 8.132812 -2.015625 7.023438 -1.109375 5.921875 -0.390625 C 4.828125 0.328125 3.820312 0.6875 2.90625 0.6875 C 2.507812 0.6875 2.164062 0.617188 1.875 0.484375 C 0.757812 -0.00390625 0.144531 -1.191406 0.03125 -3.078125 C -0.0820312 -4.960938 0.300781 -7.625 1.1875 -11.0625 C 1.25 -11.320312 1.394531 -11.519531 1.625 -11.65625 C 1.851562 -11.789062 2.082031 -11.820312 2.3125 -11.75 C 2.570312 -11.6875 2.765625 -11.539062 2.890625 -11.3125 C 3.023438 -11.082031 3.0625 -10.851562 3 -10.625 C 2.476562 -8.519531 2.148438 -6.851562 2.015625 -5.625 C 1.878906 -4.394531 1.851562 -3.46875 1.9375 -2.84375 C 2.019531 -2.226562 2.144531 -1.8125 2.3125 -1.59375 C 2.476562 -1.382812 2.578125 -1.28125 2.609375 -1.28125 C 3.035156 -1.082031 3.65625 -1.21875 4.46875 -1.6875 C 5.289062 -2.164062 6.207031 -2.875 7.21875 -3.8125 C 8.238281 -4.75 9.265625 -5.832031 10.296875 -7.0625 C 11.335938 -8.289062 12.265625 -9.578125 13.078125 -10.921875 C 13.242188 -11.148438 13.445312 -11.285156 13.6875 -11.328125 C 13.9375 -11.378906 14.175781 -11.34375 14.40625 -11.21875 Z M 2.796875 -15.15625 C 2.140625 -15.1875 1.800781 -15.375 1.78125 -15.71875 C 1.769531 -16.0625 1.921875 -16.410156 2.234375 -16.765625 C 2.546875 -17.128906 2.867188 -17.378906 3.203125 -17.515625 C 3.722656 -17.671875 4.101562 -17.632812 4.34375 -17.40625 C 4.59375 -17.175781 4.707031 -16.878906 4.6875 -16.515625 C 4.675781 -16.160156 4.515625 -15.832031 4.203125 -15.53125 C 3.890625 -15.238281 3.421875 -15.113281 2.796875 -15.15625 Z M 2.796875 -15.15625 "/></g></g></g><g fill="#000000" fill-opacity="1"><g transform="translate(138.591543, 49.519878)"><g><path d="M 20.609375 -10.921875 C 20.835938 -10.816406 20.992188 -10.640625 21.078125 -10.390625 C 21.160156 -10.148438 21.148438 -9.914062 21.046875 -9.6875 C 20.429688 -8.40625 19.753906 -7.125 19.015625 -5.84375 C 18.273438 -4.570312 17.503906 -3.398438 16.703125 -2.328125 C 15.898438 -1.265625 15.070312 -0.414062 14.21875 0.21875 C 13.363281 0.863281 12.507812 1.1875 11.65625 1.1875 C 11.488281 1.1875 11.304688 1.164062 11.109375 1.125 C 8.921875 0.695312 7.5625 -2.25 7.03125 -7.71875 C 6.476562 -6.96875 5.832031 -6.125 5.09375 -5.1875 C 4.351562 -4.25 3.570312 -3.320312 2.75 -2.40625 C 2.625 -2.28125 2.410156 -2.078125 2.109375 -1.796875 C 1.816406 -1.515625 1.472656 -1.289062 1.078125 -1.125 C 0.679688 -0.96875 0.289062 -0.988281 -0.09375 -1.1875 C -0.882812 -1.476562 -1.265625 -2.328125 -1.234375 -3.734375 C -1.234375 -4.554688 -1.078125 -5.570312 -0.765625 -6.78125 C -0.453125 -8 -0.0078125 -9.222656 0.5625 -10.453125 C 1.132812 -11.679688 1.804688 -12.769531 2.578125 -13.71875 C 3.347656 -14.675781 4.210938 -15.316406 5.171875 -15.640625 C 5.753906 -15.867188 6.472656 -15.910156 7.328125 -15.765625 C 8.179688 -15.617188 9.066406 -15.003906 9.984375 -13.921875 C 10.148438 -13.722656 10.222656 -13.492188 10.203125 -13.234375 C 10.191406 -12.972656 10.085938 -12.757812 9.890625 -12.59375 C 9.691406 -12.425781 9.457031 -12.347656 9.1875 -12.359375 C 8.925781 -12.378906 8.71875 -12.488281 8.5625 -12.6875 C 7.769531 -13.601562 7.085938 -14.035156 6.515625 -13.984375 C 5.941406 -13.941406 5.457031 -13.773438 5.0625 -13.484375 C 4.34375 -12.953125 3.6875 -12.191406 3.09375 -11.203125 C 2.507812 -10.222656 2.019531 -9.191406 1.625 -8.109375 C 1.226562 -7.035156 0.945312 -6.03125 0.78125 -5.09375 C 0.625 -4.15625 0.578125 -3.472656 0.640625 -3.046875 C 0.734375 -3.109375 0.835938 -3.1875 0.953125 -3.28125 C 1.066406 -3.382812 1.191406 -3.519531 1.328125 -3.6875 C 2.304688 -4.769531 3.207031 -5.84375 4.03125 -6.90625 C 4.851562 -7.976562 5.554688 -8.921875 6.140625 -9.734375 C 6.304688 -9.960938 6.460938 -10.179688 6.609375 -10.390625 C 6.765625 -10.609375 6.90625 -10.800781 7.03125 -10.96875 C 7.289062 -11.289062 7.632812 -11.390625 8.0625 -11.265625 C 8.488281 -11.160156 8.71875 -10.878906 8.75 -10.421875 C 8.851562 -8.296875 9.023438 -6.582031 9.265625 -5.28125 C 9.515625 -3.988281 9.785156 -3.019531 10.078125 -2.375 C 10.378906 -1.738281 10.660156 -1.304688 10.921875 -1.078125 C 11.179688 -0.847656 11.378906 -0.734375 11.515625 -0.734375 C 12.128906 -0.609375 13.125 -1.25 14.5 -2.65625 C 15.882812 -4.0625 17.492188 -6.671875 19.328125 -10.484375 C 19.460938 -10.742188 19.648438 -10.910156 19.890625 -10.984375 C 20.140625 -11.066406 20.378906 -11.046875 20.609375 -10.921875 Z M 20.609375 -10.921875 "/></g></g></g></g></g><g transform="matrix(1, 0, 0, 1, 23, 262)"><g clip-path="url(#26e98bd407)"><g fill="#000000" fill-opacity="1"><g transform="translate(0.0748736, 52.110157)"><g><path d="M 51.890625 -10.234375 C 52.117188 -10.066406 52.25 -9.847656 52.28125 -9.578125 C 52.3125 -9.316406 52.265625 -9.082031 52.140625 -8.875 C 51.941406 -8.613281 51.675781 -8.484375 51.34375 -8.484375 C 51.207031 -8.484375 51.070312 -8.515625 50.9375 -8.578125 C 50.570312 -8.648438 49.46875 -8.726562 47.625 -8.8125 C 45.78125 -8.894531 43.59375 -8.984375 41.0625 -9.078125 C 40.363281 -6.148438 39.671875 -3.210938 38.984375 -0.265625 C 38.304688 2.671875 37.6875 5.503906 37.125 8.234375 C 36.289062 12.117188 35.648438 15.285156 35.203125 17.734375 C 34.753906 20.179688 34.453125 22.078125 34.296875 23.421875 C 34.148438 24.765625 34.078125 25.738281 34.078125 26.34375 C 34.210938 26.113281 34.363281 25.863281 34.53125 25.59375 C 34.65625 25.363281 34.847656 25.210938 35.109375 25.140625 C 35.378906 25.078125 35.617188 25.113281 35.828125 25.25 C 36.054688 25.375 36.203125 25.5625 36.265625 25.8125 C 36.335938 26.0625 36.304688 26.304688 36.171875 26.546875 C 35.835938 27.140625 35.460938 27.691406 35.046875 28.203125 C 34.628906 28.722656 34.171875 28.984375 33.671875 28.984375 C 33.503906 28.984375 33.335938 28.953125 33.171875 28.890625 C 32.878906 28.753906 32.640625 28.476562 32.453125 28.0625 C 32.265625 27.644531 32.171875 26.953125 32.171875 25.984375 C 32.171875 25.023438 32.296875 23.679688 32.546875 21.953125 C 32.796875 20.222656 33.1875 17.976562 33.71875 15.21875 C 34.257812 12.457031 34.96875 9.082031 35.84375 5.09375 C 36.726562 1.101562 37.816406 -3.632812 39.109375 -9.125 C 37.453125 -9.164062 35.757812 -9.207031 34.03125 -9.25 C 32.300781 -9.300781 30.617188 -9.34375 28.984375 -9.375 C 28.585938 -9.40625 28.207031 -9.421875 27.84375 -9.421875 C 27.476562 -9.421875 27.109375 -9.421875 26.734375 -9.421875 C 24.609375 -5.398438 22.546875 -1.628906 20.546875 1.890625 C 18.554688 5.421875 16.726562 8.316406 15.0625 10.578125 C 14.03125 11.941406 13.054688 12.835938 12.140625 13.265625 C 11.234375 13.703125 10.421875 13.867188 9.703125 13.765625 C 8.984375 13.671875 8.410156 13.488281 7.984375 13.21875 C 6.890625 12.582031 5.957031 11.566406 5.1875 10.171875 C 4.425781 8.773438 3.8125 7.128906 3.34375 5.234375 C 2.875 3.335938 2.597656 1.335938 2.515625 -0.765625 C 2.429688 -2.878906 2.546875 -4.96875 2.859375 -7.03125 C 3.179688 -9.09375 3.707031 -10.972656 4.4375 -12.671875 C 5.9375 -16.066406 8.125 -18.34375 11 -19.5 C 13.875 -20.664062 17.257812 -20.632812 21.15625 -19.40625 C 21.414062 -19.34375 21.601562 -19.191406 21.71875 -18.953125 C 21.84375 -18.722656 21.851562 -18.472656 21.75 -18.203125 C 21.6875 -17.972656 21.535156 -17.789062 21.296875 -17.65625 C 21.066406 -17.53125 20.820312 -17.515625 20.5625 -17.609375 C 19.394531 -17.972656 18.144531 -18.222656 16.8125 -18.359375 C 15.476562 -18.492188 14.15625 -18.398438 12.84375 -18.078125 C 11.53125 -17.765625 10.300781 -17.117188 9.15625 -16.140625 C 8.007812 -15.160156 7.019531 -13.738281 6.1875 -11.875 C 5.414062 -10.144531 4.894531 -8.304688 4.625 -6.359375 C 4.363281 -4.410156 4.300781 -2.472656 4.4375 -0.546875 C 4.570312 1.378906 4.847656 3.179688 5.265625 4.859375 C 5.679688 6.546875 6.203125 7.976562 6.828125 9.15625 C 7.460938 10.332031 8.164062 11.140625 8.9375 11.578125 C 10.332031 12.367188 11.859375 11.648438 13.515625 9.421875 C 15.078125 7.296875 16.804688 4.570312 18.703125 1.25 C 20.597656 -2.070312 22.5625 -5.648438 24.59375 -9.484375 C 20.539062 -9.609375 17.289062 -9.710938 14.84375 -9.796875 C 12.394531 -9.878906 10.921875 -9.972656 10.421875 -10.078125 C 10.160156 -10.140625 9.953125 -10.28125 9.796875 -10.5 C 9.648438 -10.71875 9.609375 -10.957031 9.671875 -11.21875 C 9.710938 -11.488281 9.847656 -11.691406 10.078125 -11.828125 C 10.304688 -11.960938 10.539062 -12.007812 10.78125 -11.96875 C 11.113281 -11.90625 12 -11.835938 13.4375 -11.765625 C 14.882812 -11.703125 16.671875 -11.632812 18.796875 -11.5625 C 20.929688 -11.5 23.195312 -11.4375 25.59375 -11.375 C 26.6875 -13.539062 27.789062 -15.710938 28.90625 -17.890625 C 30.019531 -20.066406 31.128906 -22.21875 32.234375 -24.34375 C 34.890625 -29.632812 37.113281 -34 38.90625 -37.4375 C 40.707031 -40.882812 42.1875 -43.554688 43.34375 -45.453125 C 44.507812 -47.347656 45.46875 -48.632812 46.21875 -49.3125 C 46.96875 -50 47.625 -50.242188 48.1875 -50.046875 C 48.789062 -49.804688 49.140625 -49.3125 49.234375 -48.5625 C 49.335938 -47.820312 49.335938 -46.898438 49.234375 -45.796875 C 49.035156 -43.640625 48.457031 -40.414062 47.5 -36.125 C 47.195312 -34.6875 46.769531 -32.851562 46.21875 -30.625 C 45.675781 -28.40625 45.085938 -25.945312 44.453125 -23.25 C 43.984375 -21.351562 43.5 -19.363281 43 -17.28125 C 42.5 -15.207031 42.003906 -13.101562 41.515625 -10.96875 C 44.304688 -10.875 46.414062 -10.789062 47.84375 -10.71875 C 49.269531 -10.65625 50.265625 -10.582031 50.828125 -10.5 C 51.398438 -10.414062 51.753906 -10.328125 51.890625 -10.234375 Z M 29.03125 -11.328125 C 31.164062 -11.253906 33.097656 -11.191406 34.828125 -11.140625 C 36.554688 -11.097656 38.132812 -11.0625 39.5625 -11.03125 C 40.457031 -14.882812 41.457031 -19.109375 42.5625 -23.703125 C 43.21875 -26.390625 43.8125 -28.847656 44.34375 -31.078125 C 44.882812 -33.304688 45.320312 -35.117188 45.65625 -36.515625 C 46.1875 -39.046875 46.582031 -41.078125 46.84375 -42.609375 C 47.113281 -44.140625 47.28125 -45.3125 47.34375 -46.125 C 47.414062 -46.9375 47.429688 -47.507812 47.390625 -47.84375 C 46.828125 -47.28125 46.046875 -46.175781 45.046875 -44.53125 C 44.046875 -42.882812 42.921875 -40.894531 41.671875 -38.5625 C 40.429688 -36.238281 39.144531 -33.757812 37.8125 -31.125 C 36.488281 -28.5 35.191406 -25.957031 33.921875 -23.5 C 32.921875 -21.5 31.894531 -19.476562 30.84375 -17.4375 C 29.800781 -15.394531 28.765625 -13.359375 27.734375 -11.328125 C 27.929688 -11.328125 28.140625 -11.328125 28.359375 -11.328125 C 28.578125 -11.328125 28.800781 -11.328125 29.03125 -11.328125 Z M 29.03125 -11.328125 "/></g></g></g></g></g><g transform="matrix(1, 0, 0, 1, 163, 268)"><g clip-path="url(#eba75b606f)"><g fill="#000000" fill-opacity="1"><g transform="translate(0.958959, 46.337026)"><g><path d="M 14.609375 -9.203125 C 14.703125 -8.972656 14.707031 -8.734375 14.625 -8.484375 C 14.550781 -8.234375 14.398438 -8.046875 14.171875 -7.921875 C 14.066406 -7.890625 13.941406 -7.863281 13.796875 -7.84375 C 13.648438 -7.832031 13.296875 -7.828125 12.734375 -7.828125 C 12.179688 -7.828125 11.234375 -7.828125 9.890625 -7.828125 C 9.128906 -7.828125 8.28125 -7.828125 7.34375 -7.828125 C 6.414062 -7.828125 5.585938 -7.828125 4.859375 -7.828125 C 4.140625 -7.828125 3.6875 -7.804688 3.5 -7.765625 C 3.457031 -7.765625 3.421875 -7.765625 3.390625 -7.765625 C 2.835938 -7.765625 2.523438 -8.046875 2.453125 -8.609375 C 2.421875 -8.867188 2.488281 -9.101562 2.65625 -9.3125 C 2.820312 -9.53125 3.035156 -9.65625 3.296875 -9.6875 C 3.585938 -9.71875 4.320312 -9.734375 5.5 -9.734375 C 6.6875 -9.734375 8.164062 -9.71875 9.9375 -9.6875 C 10.71875 -9.6875 11.484375 -9.6875 12.234375 -9.6875 C 12.992188 -9.6875 13.457031 -9.6875 13.625 -9.6875 C 14.082031 -9.789062 14.410156 -9.628906 14.609375 -9.203125 Z M 14.609375 -9.203125 "/></g></g></g></g></g><g transform="matrix(1, 0, 0, 1, 96, 125)"><g clip-path="url(#657b70e239)"><g fill="#000000" fill-opacity="1"><g transform="translate(0.501522, 33.01911)"><g><path d="M 10.859375 -22.1875 C 14.460938 -22.1875 17.210938 -21.253906 19.109375 -19.390625 C 21.003906 -17.523438 21.953125 -14.757812 21.953125 -11.09375 C 21.953125 -7.425781 21.003906 -4.660156 19.109375 -2.796875 C 17.210938 -0.929688 14.460938 0 10.859375 0 L 2.890625 0 L 2.890625 -22.1875 Z M 10.609375 -3.6875 C 12.890625 -3.6875 14.597656 -4.269531 15.734375 -5.4375 C 16.867188 -6.601562 17.4375 -8.488281 17.4375 -11.09375 C 17.4375 -13.695312 16.867188 -15.582031 15.734375 -16.75 C 14.597656 -17.914062 12.890625 -18.5 10.609375 -18.5 L 7.265625 -18.5 L 7.265625 -3.6875 Z M 10.609375 -3.6875 "/></g></g></g><g fill="#000000" fill-opacity="1"><g transform="translate(25.34057, 33.01911)"><g><path d="M 12.09375 0.3125 C 10.0625 0.3125 8.269531 -0.0976562 6.71875 -0.921875 C 5.164062 -1.753906 3.945312 -3.019531 3.0625 -4.71875 C 2.1875 -6.425781 1.75 -8.550781 1.75 -11.09375 C 1.75 -13.632812 2.1875 -15.753906 3.0625 -17.453125 C 3.945312 -19.160156 5.164062 -20.425781 6.71875 -21.25 C 8.269531 -22.082031 10.0625 -22.5 12.09375 -22.5 C 14.125 -22.5 15.910156 -22.085938 17.453125 -21.265625 C 19.003906 -20.441406 20.21875 -19.175781 21.09375 -17.46875 C 21.96875 -15.757812 22.40625 -13.632812 22.40625 -11.09375 C 22.40625 -8.550781 21.96875 -6.425781 21.09375 -4.71875 C 20.21875 -3.007812 19.003906 -1.742188 17.453125 -0.921875 C 15.910156 -0.0976562 14.125 0.3125 12.09375 0.3125 Z M 12.09375 -3.484375 C 13.976562 -3.484375 15.414062 -4.085938 16.40625 -5.296875 C 17.394531 -6.503906 17.890625 -8.4375 17.890625 -11.09375 C 17.890625 -13.738281 17.394531 -15.664062 16.40625 -16.875 C 15.414062 -18.09375 13.976562 -18.703125 12.09375 -18.703125 C 10.195312 -18.703125 8.75 -18.09375 7.75 -16.875 C 6.757812 -15.664062 6.265625 -13.738281 6.265625 -11.09375 C 6.265625 -8.4375 6.757812 -6.503906 7.75 -5.296875 C 8.75 -4.085938 10.195312 -3.484375 12.09375 -3.484375 Z M 12.09375 -3.484375 "/></g></g></g><g fill="#000000" fill-opacity="1"><g transform="translate(50.634892, 33.01911)"><g><path d="M 7.125 0 L 2.890625 0 L 2.890625 -22.1875 L 7.90625 -22.1875 L 16.8125 -7.890625 L 17.203125 -7.953125 L 17.203125 -22.1875 L 21.421875 -22.1875 L 21.421875 0 L 16.9375 0 L 7.515625 -15.265625 L 7.125 -15.203125 Z M 7.125 0 "/></g></g></g><g fill="#000000" fill-opacity="1"><g transform="translate(76.080971, 33.01911)"><g><path d="M 21.296875 0 L 16.671875 0 L 15.015625 -5.109375 L 6.515625 -5.109375 L 4.84375 0 L 0.328125 0 L 8 -22.1875 L 13.625 -22.1875 Z M 10.546875 -17.5625 L 7.6875 -8.796875 L 13.796875 -8.796875 L 10.921875 -17.5625 Z M 10.546875 -17.5625 "/></g></g></g><g fill="#000000" fill-opacity="1"><g transform="translate(96.852559, 33.01911)"><g><path d="M 17.78125 -22.1875 L 17.78125 -18.5 L 11.375 -18.5 L 11.375 0 L 7.015625 0 L 7.015625 -18.5 L 0.609375 -18.5 L 0.609375 -22.1875 Z M 17.78125 -22.1875 "/></g></g></g><g fill="#000000" fill-opacity="1"><g transform="translate(116.36491, 33.01911)"><g><path d="M 7.265625 -9.75 L 7.265625 -3.671875 L 17.859375 -3.671875 L 17.859375 0 L 2.890625 0 L 2.890625 -22.1875 L 17.625 -22.1875 L 17.625 -18.515625 L 7.265625 -18.515625 L 7.265625 -13.328125 L 16.3125 -13.328125 L 16.3125 -9.75 Z M 7.265625 -9.75 "/></g></g></g><g fill="#000000" fill-opacity="1"><g transform="translate(136.56017, 33.01911)"><g><path d="M 7.265625 -22.1875 L 7.265625 -3.671875 L 17.234375 -3.671875 L 17.234375 0 L 2.890625 0 L 2.890625 -22.1875 Z M 7.265625 -22.1875 "/></g></g></g><g fill="#000000" fill-opacity="1"><g transform="translate(155.647598, 33.01911)"><g><path d="M 7.265625 -22.1875 L 7.265625 -3.671875 L 17.234375 -3.671875 L 17.234375 0 L 2.890625 0 L 2.890625 -22.1875 Z M 7.265625 -22.1875 "/></g></g></g><g fill="#000000" fill-opacity="1"><g transform="translate(174.735027, 33.01911)"><g><path d="M 7.265625 0 L 2.890625 0 L 2.890625 -22.1875 L 7.265625 -22.1875 Z M 7.265625 0 "/></g></g></g></g></g></svg>